<?xml version="1.0" encoding="UTF-8" standalone="no"?>
<!-- Uploaded to: SVG Repo, www.svgrepo.com, Generator: SVG Repo Mixer Tools -->

<svg
        width="800px"
        height="800px"
        viewBox="0 0 16 16"
        version="1.1"
        id="svg1"
        sodipodi:docname="logo.svg"
        inkscape:version="1.4.2 (f4327f4, 2025-05-13)"
        xmlns:inkscape="http://www.inkscape.org/namespaces/inkscape"
        xmlns:sodipodi="http://sodipodi.sourceforge.net/DTD/sodipodi-0.dtd"
        xmlns="http://www.w3.org/2000/svg"
>
  <defs
     id="defs1" />
  <sodipodi:namedview
     id="namedview1"
     pagecolor="#ffffff"
     bordercolor="#000000"
     borderopacity="0.25"
     inkscape:showpageshadow="2"
     inkscape:pageopacity="0.0"
     inkscape:pagecheckerboard="0"
     inkscape:deskcolor="#d1d1d1"
     inkscape:zoom="1.01875"
     inkscape:cx="400.4908"
     inkscape:cy="400"
     inkscape:window-width="1920"
     inkscape:window-height="1017"
     inkscape:window-x="-8"
     inkscape:window-y="-8"
     inkscape:window-maximized="1"
     inkscape:current-layer="svg1" />
  <path
     d="m 2 0 c -0.550781 0 -1 0.449219 -1 1 v 8 c 0 2.5 1.816406 4.246094 3.445312 5.332031 c 1.628907 1.085938 3.238282 1.617188 3.238282 1.617188 c 0.207031 0.070312 0.425781 0.070312 0.632812 0 c 0 0 1.609375 -0.53125 3.238282 -1.617188 c 1.628906 -1.085937 3.445312 -2.832031 3.445312 -5.332031 v -8 c 0 -0.550781 -0.449219 -1 -1 -1 z m 1 2 h 10 v 7 c 0 1.5 -1.183594 2.753906 -2.554688 3.667969 c -1.214843 0.808593 -2.179687 1.128906 -2.445312 1.226562 c -0.265625 -0.097656 -1.230469 -0.417969 -2.445312 -1.226562 c -1.371094 -0.914063 -2.554688 -2.167969 -2.554688 -3.667969 z m 1 1 v 6 c 0 1 0.867188 2.007812 2.109375 2.835938 c 0.933594 0.621093 1.472656 0.785156 1.890625 0.949218 v -9.785156 z m 0 0"
     fill="#2e3436"
     id="path1" />
  <path
     style="fill:#000000;stroke-width:0.981595"
     d="M 389.64583,798.54699 C 374.88252,794.78291 332.85729,776.88834 299.3865,760.1141 162.94425,691.73461 78.464987,602.64703 56.567187,504.04908 50.326946,475.95151 50.705953,490.67034 50.324044,261.59509 50.097477,125.69703 50.320046,50.190034 50.962714,44.925239 53.556173,23.679358 69.667341,5.8385238 90.109665,1.5755424 93.84254,0.79709968 181.44104,0.49079755 400.33288,0.49079755 c 270.62458,0 305.68127,0.16941074 310.87193,1.50228175 9.52162,2.4449863 16.17645,6.2285775 23.12907,13.1499847 6.56539,6.535909 9.25318,10.794228 13.02643,20.637939 l 2.08754,5.445991 0.28833,200.736196 c 0.29999,208.86027 0.0267,226.90295 -3.77408,249.19914 -15.32619,89.90572 -79.4263,170.31646 -190.37928,238.82237 -36.39138,22.4692 -87.52765,47.40151 -129.07975,62.93492 -14.1928,5.30569 -16.55643,5.90222 -24.53988,6.1933 -4.8589,0.17716 -10.40171,-0.0775 -12.31736,-0.56593 z m 24.30969,-108.41317 c 91.3702,-35.02721 173.68588,-95.40097 210.01673,-154.03505 14.92939,-24.09444 23.1442,-47.40332 25.82505,-73.27668 0.59513,-5.7437 0.97276,-77.27868 0.98323,-186.25767 l 0.017,-176.932518 H 400 149.20245 l 0.017,176.932518 c 0.0105,108.97899 0.3881,180.51397 0.98323,186.25767 2.14932,20.74339 6.55914,35.87345 16.16446,55.46012 11.23299,22.90575 25.16547,41.83205 46.6324,63.34685 37.07251,37.15518 91.57961,73.37464 147.6224,98.09371 9.91393,4.37278 37.29074,15.38261 38.91804,15.65125 0.28689,0.0474 6.77387,-2.31073 14.41552,-5.2402 z"
     id="path2"
     transform="scale(0.02)" />
  <path
     style="fill:#000000;stroke-width:0.981595"
     d="M 382.33129,631.77976 C 308.32317,602.08941 239.60525,547.91029 214.09944,499.1411 c -5.47367,-10.46611 -7.88746,-16.5365 -11.12397,-27.97546 l -2.22183,-7.85276 -0.28015,-156.31901 -0.28014,-156.31902 h 99.65793 99.65792 v 243.92638 c 0,134.15951 -0.11043,243.91437 -0.2454,243.8997 -0.13497,-0.0147 -7.7546,-3.03921 -16.93251,-6.72117 z"
     id="path3"
     transform="scale(0.02)" />
</svg>
